<svg width="24pt" height="24pt" viewBox="0 0 32 32" version="1.1" xmlns="http://www.w3.org/2000/svg" style="width:24px;height:24px;">
<path fill="#feffff" d=" M 13.83 8.90 C 16.32 5.74 21.70 5.62 24.23 8.79 C 27.14 12.04 25.83 18.05 21.60 19.49 C 17.40 20.57 12.80 19.06 8.75 20.86 C 9.19 24.90 13.02 21.52 15.25 21.27 C 14.16 23.53 12.18 26.41 9.24 25.24 C 5.87 24.26 5.83 19.17 9.09 18.02 C 12.86 17.27 16.77 18.11 20.54 17.37 C 23.50 16.44 24.42 11.98 22.02 9.99 C 20.10 7.96 16.39 8.66 15.21 11.14 C 14.66 12.81 14.58 14.57 14.34 16.30 C 13.74 16.28 12.55 16.24 11.96 16.22 C 12.34 13.76 12.01 10.88 13.83 8.90 Z" />
</svg>